<svg width="158" height="78" viewBox="0 0 158 78" fill="none" xmlns="http://www.w3.org/2000/svg">
<path d="M117.841 32.5345V39.265C117.841 40.9265 119.516 42.0529 121.051 41.4193L147.114 30.7463C148.367 30.2394 149.17 29.0285 149.17 27.6768V23.8609C149.17 22.1854 147.522 21.0308 145.945 21.594L118.502 31.5911C118.108 31.7319 117.841 32.1121 117.841 32.5345Z" fill="url(#paint0_linear_31017_3932)"/>
<path style="mix-blend-mode:overlay" opacity="0.7" d="M117.841 35.3085V39.2651C117.841 40.9266 119.516 42.0531 121.051 41.4194L147.114 30.7464C148.367 30.2395 149.17 29.0286 149.17 27.6769V23.9033L117.841 35.3085Z" fill="url(#paint1_linear_31017_3932)"/>
<path style="mix-blend-mode:multiply" opacity="0.8" d="M119.192 31.8305V38.3356C119.192 39.9549 120.826 41.0532 122.318 40.4477L146.72 30.4506C147.959 29.9437 148.775 28.7327 148.775 27.381V23.6075C148.775 22.3684 147.536 21.5095 146.382 21.9319L119.192 31.8305Z" fill="url(#paint2_linear_31017_3932)"/>
<path d="M149.17 25.1707V23.3965C149.17 21.5942 148.086 19.975 146.424 19.2991L121.051 8.90771C119.516 8.27409 117.841 9.41461 117.841 11.062V17.8066C117.841 18.2149 118.108 18.5951 118.502 18.7359L144.72 28.2824C146.889 29.071 149.17 27.4658 149.17 25.1707Z" fill="url(#paint3_linear_31017_3932)"/>
<path style="mix-blend-mode:overlay" opacity="0.7" d="M149.17 23.3965C149.17 21.5942 148.086 19.975 146.424 19.2991L121.051 8.90771C119.516 8.27409 117.841 9.41461 117.841 11.062V17.8488C117.841 18.2431 118.066 18.5951 118.432 18.764V14.2724C118.432 12.6109 120.108 11.4844 121.642 12.1181L149.17 23.3965Z" fill="url(#paint4_linear_31017_3932)"/>
<path d="M11.2374 22.1064C9.66036 21.5432 8.01294 22.6978 8.01294 24.3734V28.1892C8.01294 29.5409 8.81553 30.7519 10.0687 31.2587L36.1317 41.9318C37.6664 42.5654 39.342 41.4389 39.342 39.7774V33.047C39.342 32.6246 39.0745 32.2444 38.6802 32.1036L11.2374 22.1064Z" fill="url(#paint5_linear_31017_3932)"/>
<path style="mix-blend-mode:overlay" opacity="0.7" d="M8.01294 24.4155V28.1891C8.01294 29.5408 8.81553 30.7517 10.0687 31.2586L36.1317 41.9316C37.6664 42.5653 39.342 41.4388 39.342 39.7773V35.8207L8.01294 24.4155Z" fill="url(#paint6_linear_31017_3932)"/>
<path style="mix-blend-mode:multiply" d="M10.8009 22.4443C9.64631 22.0219 8.40723 22.8808 8.40723 24.1199V27.8935C8.40723 29.2452 9.2239 30.4561 10.463 30.963L34.7659 40.9179C36.3007 41.5515 37.9903 40.411 37.9903 38.7495V32.3429L10.8009 22.4443Z" fill="url(#paint7_linear_31017_3932)"/>
<path d="M12.4624 28.6538L38.6802 19.1072C39.0745 18.9664 39.342 18.5862 39.342 18.1779V11.4334C39.342 9.78595 37.6664 8.64543 36.1317 9.27905L10.7586 19.6704C9.09714 20.3463 8.01294 21.9656 8.01294 23.7679V25.542C8.01294 27.8371 10.294 29.4423 12.4624 28.6538Z" fill="url(#paint8_linear_31017_3932)"/>
<path style="mix-blend-mode:overlay" opacity="0.7" d="M8.01294 23.9085C8.01294 22.1062 9.09714 20.4869 10.7586 19.8111L36.1317 9.41967C37.6664 8.78605 39.342 9.92657 39.342 11.574V18.3608C39.342 18.755 39.1167 19.107 38.7506 19.276V14.7843C38.7506 13.1228 37.075 11.9964 35.5403 12.63L8.01294 23.9085Z" fill="url(#paint9_linear_31017_3932)"/>
<path d="M64.0251 1.71782L48.5225 47.4794C47.734 49.8027 45.5515 51.3656 43.1015 51.3656H40.5529C39.6659 51.3656 39.0463 50.4926 39.3279 49.6618L54.8024 3.88621C55.5909 1.56293 57.7733 0 60.2234 0H62.8001C63.6871 0 64.3067 0.872991 64.0251 1.71782Z" fill="url(#paint10_linear_31017_3932)"/>
<path style="mix-blend-mode:multiply" opacity="0.8" d="M64.0251 1.71782L48.5225 47.4794C47.734 49.8027 45.5515 51.3656 43.1015 51.3656H40.5529C39.6659 51.3656 39.0463 50.4926 39.3279 49.6618L54.8024 3.88621C55.5909 1.56293 57.7733 0 60.2234 0H62.8001C63.6871 0 64.3067 0.872991 64.0251 1.71782Z" fill="url(#paint11_linear_31017_3932)"/>
<path d="M54.8024 3.88621L39.3279 49.6618C39.0463 50.4926 39.6659 51.3656 40.5529 51.3656H42.848L60.2234 0C57.7733 0 55.5909 1.56293 54.8024 3.88621Z" fill="url(#paint12_linear_31017_3932)"/>
<path style="mix-blend-mode:overlay" opacity="0.7" d="M61.5751 1.71782H64.0251C64.3067 0.872991 63.6871 0 62.8001 0H60.2234C57.7733 0 55.5909 1.56293 54.8024 3.88621L39.3279 49.6618C39.0463 50.4926 39.6659 51.3656 40.5529 51.3656H40.6796L56.1541 5.60403C56.9426 3.28075 59.1251 1.71782 61.5751 1.71782Z" fill="url(#paint13_linear_31017_3932)"/>
<g filter="url(#filter0_d_31017_3932)">
<path d="M78.8082 22.7765C78.8082 24.2446 78.344 25.4752 77.4156 26.4684C76.5088 27.4615 75.3646 28.2172 73.9828 28.7353C75.0623 29.1887 75.7748 29.7393 76.1202 30.387L78.4843 34.8885C79.4991 35.2339 80.1899 35.6333 80.557 36.0867L80.2331 38.5804H74.76L71.0358 30.646C70.6903 29.8472 70.2909 29.4478 69.8375 29.4478H67.7325V34.6294C69.3086 34.9748 70.2909 35.3959 70.6795 35.8924L70.3557 38.5804H61.6117L61.2878 35.8924C61.5685 35.5254 62.1622 35.1692 63.069 34.8237V20.0237C62.1838 19.6999 61.5901 19.3328 61.2878 18.9226L61.6117 16.2347H69.8699C72.8925 16.2778 75.1379 16.7636 76.606 17.692C78.0741 18.6204 78.8082 20.3152 78.8082 22.7765ZM69.6432 19.7646H67.7325V25.9178H69.5784C71.0466 25.9178 72.1369 25.7019 72.8493 25.2701C73.5834 24.8167 73.9504 24.0179 73.9504 22.8736C73.9504 21.7293 73.5834 20.9305 72.8493 20.4771C72.1153 20.0021 71.0466 19.7646 69.6432 19.7646Z" fill="url(#paint14_linear_31017_3932)"/>
<path d="M98.5707 16.2671V20.8981L96.5304 21.1572C96.2497 20.9413 95.9799 20.4879 95.7208 19.797H91.8346V34.8237C92.6982 35.1692 93.2919 35.5254 93.6158 35.8924L93.2919 38.5804H85.7138L85.3899 35.8924C85.6706 35.5254 86.2643 35.1692 87.1711 34.8237V19.797H83.2849C83.0258 20.4879 82.756 20.9413 82.4753 21.1572L80.435 20.8981V16.2671H98.5707Z" fill="url(#paint15_linear_31017_3932)"/>
<path d="M109.846 19.7646C109.112 19.5703 108.346 19.4732 107.547 19.4732C106.748 19.4732 106.1 19.6783 105.604 20.0885C105.129 20.4771 104.891 21.0385 104.891 21.7725C104.891 22.485 105.075 23.0463 105.442 23.4565C105.809 23.8668 106.532 24.223 107.612 24.5253L110.494 25.3673C112.048 25.8207 113.279 26.5331 114.186 27.5047C115.114 28.4546 115.578 29.858 115.578 31.7147C115.578 33.9169 114.78 35.6549 113.182 36.9287C111.606 38.2026 109.641 38.8395 107.288 38.8395C105.992 38.8395 104.654 38.6775 103.272 38.3537C101.912 38.0082 100.778 37.5333 99.8717 36.9287C99.8717 36.7992 99.8717 36.5509 99.8717 36.1839C99.8717 35.8169 99.9472 35.1907 100.098 34.3056C100.249 33.4204 100.465 32.6971 100.746 32.1357H103.823C104.168 32.805 104.373 33.701 104.438 34.8237C105.194 35.1476 106.068 35.3095 107.061 35.3095C108.076 35.3095 108.907 35.072 109.555 34.597C110.203 34.122 110.526 33.4419 110.526 32.5568C110.526 32.1465 110.494 31.8119 110.429 31.5528C110.364 31.2721 110.159 30.9807 109.814 30.6784C109.49 30.3546 109.015 30.0955 108.389 29.9012L105.053 28.9296C101.664 27.9581 99.9688 25.7991 99.9688 22.4526C99.9688 20.4879 100.681 18.9226 102.106 17.7568C103.531 16.5693 105.388 15.9756 107.676 15.9756C109.987 15.9756 112.243 16.4937 114.445 17.5301C114.445 17.6596 114.445 17.9079 114.445 18.2749C114.445 18.642 114.369 19.2681 114.218 20.1533C114.067 21.0385 113.851 21.7617 113.571 22.3231H110.494C110.127 21.8049 109.911 20.9521 109.846 19.7646Z" fill="url(#paint16_linear_31017_3932)"/>
</g>
<g filter="url(#filter1_d_31017_3932)">
<path d="M4 64.7701V49.6688H6.49224L13.2509 49.6477C15.9825 49.6477 18.1016 50.2884 19.6082 51.5697C21.1148 52.851 21.8681 54.7308 21.8681 57.2089C21.8681 59.6871 21.1148 61.5668 19.6082 62.8482C18.1016 64.1295 15.9825 64.7701 13.2509 64.7701H4ZM13.0185 52.3934H7.37931V62.0244H13.0185C14.7927 62.0244 16.1374 61.6372 17.0526 60.8628C17.9678 60.0884 18.4255 58.8704 18.4255 57.2089C18.4255 55.5333 17.9678 54.3154 17.0526 53.555C16.1374 52.7806 14.7927 52.3934 13.0185 52.3934Z" fill="url(#paint17_linear_31017_3932)" shape-rendering="crispEdges"/>
<path d="M29.2454 64.8757C27.3586 64.8757 25.8872 64.4111 24.8311 63.4818C23.7751 62.5384 23.2471 61.1585 23.2471 59.3421C23.2471 57.5117 23.7751 56.1318 24.8311 55.2025C25.8872 54.2591 27.3586 53.7874 29.2454 53.7874H34.5255C35.7646 53.7874 36.708 54.0831 37.3557 54.6744C38.0175 55.2517 38.3484 56.0825 38.3484 57.1667C38.3484 59.3773 37.0741 60.4826 34.5255 60.4826H26.5419C26.8376 61.7921 27.7388 62.4469 29.2454 62.4469H37.7993V64.8757H29.2454ZM29.2454 56.2162C27.7951 56.2162 26.901 56.8287 26.563 58.0538H34.3777C34.6593 58.0538 34.8776 57.9693 35.0324 57.8003C35.2014 57.6313 35.2859 57.399 35.2859 57.1033C35.2859 56.5119 34.9832 56.2162 34.3777 56.2162H29.2454Z" fill="url(#paint18_linear_31017_3932)" shape-rendering="crispEdges"/>
<path d="M43.6791 64.7701L39.0959 53.893H42.3062L45.8545 62.3201H46.9105L50.4588 53.893H53.6692L49.086 64.7701H43.6791Z" fill="url(#paint19_linear_31017_3932)" shape-rendering="crispEdges"/>
<path d="M60.4108 64.8757C58.524 64.8757 57.0526 64.4111 55.9966 63.4818C54.9405 62.5384 54.4125 61.1585 54.4125 59.3421C54.4125 57.5117 54.9405 56.1318 55.9966 55.2025C57.0526 54.2591 58.524 53.7874 60.4108 53.7874H65.691C66.9301 53.7874 67.8735 54.0831 68.5212 54.6744C69.1829 55.2517 69.5138 56.0825 69.5138 57.1667C69.5138 59.3773 68.2395 60.4826 65.691 60.4826H57.7073C58.003 61.7921 58.9042 62.4469 60.4108 62.4469H68.9647V64.8757H60.4108ZM60.4108 56.2162C58.9605 56.2162 58.0664 56.8287 57.7285 58.0538H65.5431C65.8247 58.0538 66.043 57.9693 66.1979 57.8003C66.3668 57.6313 66.4513 57.399 66.4513 57.1033C66.4513 56.5119 66.1486 56.2162 65.5431 56.2162H60.4108Z" fill="url(#paint20_linear_31017_3932)" shape-rendering="crispEdges"/>
<path d="M71.418 64.7701V49.6688H74.4805V64.7701H71.418Z" fill="url(#paint21_linear_31017_3932)" shape-rendering="crispEdges"/>
<path d="M82.3772 64.8757C80.4904 64.8757 79.019 64.4111 77.9629 63.4818C76.9069 62.5384 76.3789 61.1585 76.3789 59.3421C76.3789 57.5117 76.9069 56.1318 77.9629 55.2025C79.019 54.2591 80.4904 53.7874 82.3772 53.7874H86.2845C88.1713 53.7874 89.6427 54.2591 90.6987 55.2025C91.7548 56.1318 92.2828 57.5117 92.2828 59.3421C92.2828 61.1585 91.7548 62.5384 90.6987 63.4818C89.6427 64.4111 88.1713 64.8757 86.2845 64.8757H82.3772ZM82.3772 62.4469H86.2845C87.1997 62.4469 87.8967 62.1934 88.3755 61.6865C88.8683 61.1796 89.1147 60.3982 89.1147 59.3421C89.1147 58.272 88.8683 57.4835 88.3755 56.9766C87.8967 56.4697 87.1997 56.2162 86.2845 56.2162H82.3772C81.4619 56.2162 80.7579 56.4697 80.2651 56.9766C79.7864 57.4835 79.547 58.272 79.547 59.3421C79.547 60.3982 79.7864 61.1796 80.2651 61.6865C80.7579 62.1934 81.4619 62.4469 82.3772 62.4469Z" fill="url(#paint22_linear_31017_3932)" shape-rendering="crispEdges"/>
<path d="M94.1888 69.5223V53.893H102.003C103.89 53.893 105.362 54.3576 106.418 55.2869C107.474 56.2162 108.002 57.5609 108.002 59.321C108.002 61.0951 107.474 62.4469 106.418 63.3762C105.362 64.3055 103.89 64.7701 102.003 64.7701H97.2513V69.5223H94.1888ZM102.003 56.3219H97.2513V62.3413H102.003C102.919 62.3413 103.616 62.0948 104.094 61.602C104.587 61.0951 104.834 60.3348 104.834 59.321C104.834 58.3213 104.587 57.575 104.094 57.0822C103.616 56.5753 102.919 56.3219 102.003 56.3219Z" fill="url(#paint23_linear_31017_3932)" shape-rendering="crispEdges"/>
<path d="M115.481 64.8757C113.595 64.8757 112.123 64.4111 111.067 63.4818C110.011 62.5384 109.483 61.1585 109.483 59.3421C109.483 57.5117 110.011 56.1318 111.067 55.2025C112.123 54.2591 113.595 53.7874 115.481 53.7874H120.762C122.001 53.7874 122.944 54.0831 123.592 54.6744C124.254 55.2517 124.584 56.0825 124.584 57.1667C124.584 59.3773 123.31 60.4826 120.762 60.4826H112.778C113.074 61.7921 113.975 62.4469 115.481 62.4469H124.035V64.8757H115.481ZM115.481 56.2162C114.031 56.2162 113.137 56.8287 112.799 58.0538H120.614C120.895 58.0538 121.114 57.9693 121.268 57.8003C121.437 57.6313 121.522 57.399 121.522 57.1033C121.522 56.5119 121.219 56.2162 120.614 56.2162H115.481Z" fill="url(#paint24_linear_31017_3932)" shape-rendering="crispEdges"/>
<path d="M126.489 64.7701V53.893H134.81C136.035 53.893 136.936 54.2027 137.514 54.8223C138.091 55.4277 138.38 56.2303 138.38 57.23V59.49H135.275V57.6102C135.275 56.7654 134.852 56.343 134.008 56.343H129.593V64.7701H126.489Z" fill="url(#paint25_linear_31017_3932)" shape-rendering="crispEdges"/>
<path d="M139.701 64.8757V62.4469H150.05C150.642 62.4469 150.937 62.116 150.937 61.4542C150.937 60.8065 150.642 60.4826 150.05 60.4826H143.355C142.102 60.4826 141.152 60.201 140.504 59.6378C139.856 59.0605 139.532 58.2368 139.532 57.1667C139.532 56.0825 139.856 55.2517 140.504 54.6744C141.166 54.0831 142.116 53.7874 143.355 53.7874H152.986V56.2162H143.503C142.898 56.2162 142.595 56.5119 142.595 57.1033C142.595 57.399 142.679 57.6313 142.848 57.8003C143.017 57.9693 143.235 58.0538 143.503 58.0538H150.6C151.698 58.0538 152.536 58.3424 153.113 58.9197C153.704 59.4829 154 60.3066 154 61.3908C154 62.4891 153.704 63.348 153.113 63.9676C152.522 64.573 151.684 64.8757 150.6 64.8757H139.701Z" fill="url(#paint26_linear_31017_3932)" shape-rendering="crispEdges"/>
</g>
<defs>
<filter id="filter0_d_31017_3932" x="56.2878" y="15.9756" width="64.2905" height="32.8638" filterUnits="userSpaceOnUse" color-interpolation-filters="sRGB">
<feFlood flood-opacity="0" result="BackgroundImageFix"/>
<feColorMatrix in="SourceAlpha" type="matrix" values="0 0 0 0 0 0 0 0 0 0 0 0 0 0 0 0 0 0 127 0" result="hardAlpha"/>
<feOffset dy="5"/>
<feGaussianBlur stdDeviation="2.5"/>
<feComposite in2="hardAlpha" operator="out"/>
<feColorMatrix type="matrix" values="0 0 0 0 0 0 0 0 0 0 0 0 0 0 0 0 0 0 0.2 0"/>
<feBlend mode="normal" in2="BackgroundImageFix" result="effect1_dropShadow_31017_3932"/>
<feBlend mode="normal" in="SourceGraphic" in2="effect1_dropShadow_31017_3932" result="shape"/>
</filter>
<filter id="filter1_d_31017_3932" x="0" y="49.6477" width="158" height="27.8745" filterUnits="userSpaceOnUse" color-interpolation-filters="sRGB">
<feFlood flood-opacity="0" result="BackgroundImageFix"/>
<feColorMatrix in="SourceAlpha" type="matrix" values="0 0 0 0 0 0 0 0 0 0 0 0 0 0 0 0 0 0 127 0" result="hardAlpha"/>
<feOffset dy="4"/>
<feGaussianBlur stdDeviation="2"/>
<feComposite in2="hardAlpha" operator="out"/>
<feColorMatrix type="matrix" values="0 0 0 0 0 0 0 0 0 0 0 0 0 0 0 0 0 0 0.25 0"/>
<feBlend mode="normal" in2="BackgroundImageFix" result="effect1_dropShadow_31017_3932"/>
<feBlend mode="normal" in="SourceGraphic" in2="effect1_dropShadow_31017_3932" result="shape"/>
</filter>
<linearGradient id="paint0_linear_31017_3932" x1="117.839" y1="21.4521" x2="149.176" y2="21.4521" gradientUnits="userSpaceOnUse">
<stop stop-color="#00BEF5"/>
<stop offset="1" stop-color="#007DC6"/>
</linearGradient>
<linearGradient id="paint1_linear_31017_3932" x1="117.839" y1="23.9061" x2="149.176" y2="23.9061" gradientUnits="userSpaceOnUse">
<stop stop-color="white"/>
<stop offset="0.996" stop-color="white" stop-opacity="0"/>
</linearGradient>
<linearGradient id="paint2_linear_31017_3932" x1="141.952" y1="26.4127" x2="141.037" y2="32.9111" gradientUnits="userSpaceOnUse">
<stop stop-color="#13355C"/>
<stop offset="0.996" stop-color="white" stop-opacity="0"/>
</linearGradient>
<linearGradient id="paint3_linear_31017_3932" x1="140.166" y1="14.4143" x2="139.74" y2="28.3269" gradientUnits="userSpaceOnUse">
<stop stop-color="#00BEF5"/>
<stop offset="1" stop-color="#007DC6"/>
</linearGradient>
<linearGradient id="paint4_linear_31017_3932" x1="135.973" y1="3.13218" x2="138.898" y2="20.0983" gradientUnits="userSpaceOnUse">
<stop stop-color="white"/>
<stop offset="0.996" stop-color="white" stop-opacity="0"/>
</linearGradient>
<linearGradient id="paint5_linear_31017_3932" x1="39.3433" y1="21.9645" x2="8.00632" y2="21.9645" gradientUnits="userSpaceOnUse">
<stop stop-color="#1D92E6"/>
<stop offset="0.994" stop-color="#0C48A2"/>
</linearGradient>
<linearGradient id="paint6_linear_31017_3932" x1="39.3433" y1="24.4183" x2="8.00632" y2="24.4183" gradientUnits="userSpaceOnUse">
<stop stop-color="white"/>
<stop offset="0.996" stop-color="white" stop-opacity="0"/>
</linearGradient>
<linearGradient id="paint7_linear_31017_3932" x1="15.2539" y1="26.914" x2="16.1679" y2="33.4033" gradientUnits="userSpaceOnUse">
<stop stop-color="#085C2D"/>
<stop offset="0.996" stop-color="white" stop-opacity="0"/>
</linearGradient>
<linearGradient id="paint8_linear_31017_3932" x1="17.017" y1="14.7856" x2="17.4429" y2="28.6983" gradientUnits="userSpaceOnUse">
<stop stop-color="#1D92E6"/>
<stop offset="0.994" stop-color="#0C48A2"/>
</linearGradient>
<linearGradient id="paint9_linear_31017_3932" x1="21.2094" y1="3.64414" x2="18.2843" y2="20.6103" gradientUnits="userSpaceOnUse">
<stop stop-color="white"/>
<stop offset="0.996" stop-color="white" stop-opacity="0"/>
</linearGradient>
<linearGradient id="paint10_linear_31017_3932" x1="115.24" y1="14.2269" x2="101.755" y2="62.2489" gradientUnits="userSpaceOnUse">
<stop stop-color="white"/>
<stop offset="1" stop-color="#007DC6"/>
</linearGradient>
<linearGradient id="paint11_linear_31017_3932" x1="57.3387" y1="-12.722" x2="68.8389" y2="-9.64051" gradientUnits="userSpaceOnUse">
<stop stop-color="#13355C"/>
<stop offset="0.996" stop-color="white" stop-opacity="0"/>
</linearGradient>
<linearGradient id="paint12_linear_31017_3932" x1="122.243" y1="17.2813" x2="109.008" y2="64.4099" gradientUnits="userSpaceOnUse">
<stop stop-color="#FFDC00"/>
<stop offset="0.0001" stop-color="#007DC6"/>
</linearGradient>
<linearGradient id="paint13_linear_31017_3932" x1="115.245" y1="14.2272" x2="101.759" y2="62.2499" gradientUnits="userSpaceOnUse">
<stop stop-color="white"/>
<stop offset="0.996" stop-color="white" stop-opacity="0"/>
</linearGradient>
<linearGradient id="paint14_linear_31017_3932" x1="56.3437" y1="9.57825" x2="110.221" y2="28.7808" gradientUnits="userSpaceOnUse">
<stop stop-color="#0C48A2"/>
<stop offset="1" stop-color="#04ACDD"/>
</linearGradient>
<linearGradient id="paint15_linear_31017_3932" x1="56.3437" y1="9.57825" x2="110.221" y2="28.7808" gradientUnits="userSpaceOnUse">
<stop stop-color="#0C48A2"/>
<stop offset="1" stop-color="#04ACDD"/>
</linearGradient>
<linearGradient id="paint16_linear_31017_3932" x1="56.3437" y1="9.57825" x2="110.221" y2="28.7808" gradientUnits="userSpaceOnUse">
<stop stop-color="#0C48A2"/>
<stop offset="1" stop-color="#04ACDD"/>
</linearGradient>
<linearGradient id="paint17_linear_31017_3932" x1="116.848" y1="57.7299" x2="139.615" y2="81.6973" gradientUnits="userSpaceOnUse">
<stop stop-color="#2DCCF4"/>
<stop offset="1" stop-color="white" stop-opacity="0.9"/>
</linearGradient>
<linearGradient id="paint18_linear_31017_3932" x1="116.848" y1="57.7299" x2="139.615" y2="81.6973" gradientUnits="userSpaceOnUse">
<stop stop-color="#2DCCF4"/>
<stop offset="1" stop-color="white" stop-opacity="0.9"/>
</linearGradient>
<linearGradient id="paint19_linear_31017_3932" x1="116.848" y1="57.7299" x2="139.615" y2="81.6973" gradientUnits="userSpaceOnUse">
<stop stop-color="#2DCCF4"/>
<stop offset="1" stop-color="white" stop-opacity="0.9"/>
</linearGradient>
<linearGradient id="paint20_linear_31017_3932" x1="116.848" y1="57.7299" x2="139.615" y2="81.6973" gradientUnits="userSpaceOnUse">
<stop stop-color="#2DCCF4"/>
<stop offset="1" stop-color="white" stop-opacity="0.9"/>
</linearGradient>
<linearGradient id="paint21_linear_31017_3932" x1="116.848" y1="57.7299" x2="139.615" y2="81.6973" gradientUnits="userSpaceOnUse">
<stop stop-color="#2DCCF4"/>
<stop offset="1" stop-color="white" stop-opacity="0.9"/>
</linearGradient>
<linearGradient id="paint22_linear_31017_3932" x1="116.848" y1="57.7299" x2="139.615" y2="81.6973" gradientUnits="userSpaceOnUse">
<stop stop-color="#2DCCF4"/>
<stop offset="1" stop-color="white" stop-opacity="0.9"/>
</linearGradient>
<linearGradient id="paint23_linear_31017_3932" x1="116.848" y1="57.7299" x2="139.615" y2="81.6973" gradientUnits="userSpaceOnUse">
<stop stop-color="#2DCCF4"/>
<stop offset="1" stop-color="white" stop-opacity="0.9"/>
</linearGradient>
<linearGradient id="paint24_linear_31017_3932" x1="116.848" y1="57.7299" x2="139.615" y2="81.6973" gradientUnits="userSpaceOnUse">
<stop stop-color="#2DCCF4"/>
<stop offset="1" stop-color="white" stop-opacity="0.9"/>
</linearGradient>
<linearGradient id="paint25_linear_31017_3932" x1="116.848" y1="57.7299" x2="139.615" y2="81.6973" gradientUnits="userSpaceOnUse">
<stop stop-color="#2DCCF4"/>
<stop offset="1" stop-color="white" stop-opacity="0.9"/>
</linearGradient>
<linearGradient id="paint26_linear_31017_3932" x1="116.848" y1="57.7299" x2="139.615" y2="81.6973" gradientUnits="userSpaceOnUse">
<stop stop-color="#2DCCF4"/>
<stop offset="1" stop-color="white" stop-opacity="0.9"/>
</linearGradient>
</defs>
</svg>
